<svg xmlns="http://www.w3.org/2000/svg" viewBox="0 0 20 19"><defs><style>.a{fill:#1c398b;}</style></defs><path class="a" d="M1072.588,10453.992a9.529,9.529,0,0,1-6.761-2.788,9.455,9.455,0,0,1,.008-13.434,9.53,9.53,0,0,1,6.758-2.778h.005a9.518,9.518,0,0,1,3.885.821.8.8,0,0,1,.409,1.06.809.809,0,0,1-1.065.407,7.968,7.968,0,0,0-3.23-.685h-.005a7.922,7.922,0,0,0-5.615,2.309,7.826,7.826,0,0,0-2.332,5.583,7.93,7.93,0,0,0,7.942,7.9h.005a7.927,7.927,0,0,0,5.615-2.309,7.825,7.825,0,0,0,2.332-5.58v-.809a.807.807,0,0,1,1.614,0v.809a9.4,9.4,0,0,1-2.8,6.716,9.524,9.524,0,0,1-6.756,2.778Zm-.567-7.188-2.626-2.61a.8.8,0,0,1,0-1.136.815.815,0,0,1,1.144,0l2.054,2.044,9.057-9a.815.815,0,0,1,1.144,0,.8.8,0,0,1,0,1.136l-9.629,9.568a.81.81,0,0,1-1.144,0Z" transform="translate(-1063.03 -10434.992)"/></svg>